[Source_Audio]
source = CD.wav
destination = source_file_01.wav

[Source_CUE]
tags.cue = tags.cue

[Source_Files]
cover.png = cover.png
01-track.flac.expected = ../01-track.flac.expected
02-track.flac.expected = ../02-track.flac.expected

[Result_Audio]
01-track.flac =
02-track.flac =

[Result_Tags/01-track.flac]
Album                = Album Title Tag
Album/Performer      = Disk Performer Tag
Track                = Track 01 Title Tag
Performer            = Track 01 Performer Tag
Genre                = Genre Tag
Recorded_Date        = 2011
Comment              = Comment Tag
discId               = 12345678
cuesheet             = REM GENRE \"Genre Tag\" / REM DATE 2011 / REM DISCID 12345678 / REM COMMENT \"Flacon v8.3.0\" / REM TOTALDISCS 4 / REM DISCNUMBER 3 / TITLE \"Album Title Tag\" / FILE \"00-track.flac\" WAVE /   TRACK 01 AUDIO /     TITLE \"Track 01 Title Tag\" /     INDEX 00 00:00:00 / FILE \"01-track.flac\" WAVE /     INDEX 01 00:00:00 /     PERFORMER \"Track 01 Performer Tag\" /   TRACK 02 AUDIO /     TITLE \"Track 02 Title Tag\" / FILE \"02-track.flac\" WAVE /     INDEX 01 00:00:00 /     PERFORMER \"Track 02 Performer Tag\"
Track/Position       = 1
Track/Position_Total = 2
Part                 = 3
Part/Position_Total  = 4
Cover                = Yes
Cover_Type           = Cover (front)
Cover_Mime           = image/png

[Result_Tags/02-track.flac]
Album                = Album Title Tag
Album/Performer      = Disk Performer Tag
Track                = Track 02 Title Tag
Performer            = Track 02 Performer Tag
Genre                = Genre Tag
Recorded_Date        = 2011
Comment              = Comment Tag
discId               = 12345678
cuesheet             = REM GENRE \"Genre Tag\" / REM DATE 2011 / REM DISCID 12345678 / REM COMMENT \"Flacon v8.3.0\" / REM TOTALDISCS 4 / REM DISCNUMBER 3 / TITLE \"Album Title Tag\" / FILE \"00-track.flac\" WAVE /   TRACK 01 AUDIO /     TITLE \"Track 01 Title Tag\" /     INDEX 00 00:00:00 / FILE \"01-track.flac\" WAVE /     INDEX 01 00:00:00 /     PERFORMER \"Track 01 Performer Tag\" /   TRACK 02 AUDIO /     TITLE \"Track 02 Title Tag\" / FILE \"02-track.flac\" WAVE /     INDEX 01 00:00:00 /     PERFORMER \"Track 02 Performer Tag\"
Track/Position       = 2
Track/Position_Total = 2
Part                 = 3
Part/Position_Total  = 4
Cover                = Yes
Cover_Type           = Cover (front)
Cover_Mime           = image/png
